<mxfile host="app.diagrams.net" modified="2024-05-29T13:31:51.113Z" agent="Mozilla/5.0 (Windows NT 10.0; Win64; x64) AppleWebKit/537.36 (KHTML, like Gecko) Chrome/124.0.0.0 Safari/537.36" etag="csGeFRHiXz08WH1IUuXH" version="24.4.9" type="device" pages="3">
  <diagram name="Фабричний метод" id="xLrMY8pWy-DpUrXRshUA">
    <mxGraphModel dx="1762" dy="821" grid="1" gridSize="10" guides="1" tooltips="1" connect="1" arrows="1" fold="1" page="1" pageScale="1" pageWidth="827" pageHeight="1169" math="0" shadow="0">
      <root>
        <mxCell id="0" />
        <mxCell id="1" parent="0" />
        <mxCell id="inkB7Cj6uyTquk0GmjOG-21" style="edgeStyle=orthogonalEdgeStyle;rounded=0;orthogonalLoop=1;jettySize=auto;html=1;exitX=0.25;exitY=1;exitDx=0;exitDy=0;entryX=0.5;entryY=0;entryDx=0;entryDy=0;" parent="1" source="inkB7Cj6uyTquk0GmjOG-10" target="WPzoRWSfovS5k_taFGuc-25" edge="1">
          <mxGeometry relative="1" as="geometry">
            <mxPoint x="685" y="340" as="targetPoint" />
          </mxGeometry>
        </mxCell>
        <mxCell id="inkB7Cj6uyTquk0GmjOG-22" style="edgeStyle=orthogonalEdgeStyle;rounded=0;orthogonalLoop=1;jettySize=auto;html=1;exitX=0.5;exitY=1;exitDx=0;exitDy=0;entryX=0.5;entryY=0;entryDx=0;entryDy=0;" parent="1" source="inkB7Cj6uyTquk0GmjOG-10" target="WPzoRWSfovS5k_taFGuc-24" edge="1">
          <mxGeometry relative="1" as="geometry">
            <mxPoint x="839.5" y="340" as="targetPoint" />
          </mxGeometry>
        </mxCell>
        <mxCell id="inkB7Cj6uyTquk0GmjOG-33" style="edgeStyle=orthogonalEdgeStyle;rounded=0;orthogonalLoop=1;jettySize=auto;html=1;entryX=0.5;entryY=0;entryDx=0;entryDy=0;" parent="1" source="inkB7Cj6uyTquk0GmjOG-10" target="WPzoRWSfovS5k_taFGuc-22" edge="1">
          <mxGeometry relative="1" as="geometry" />
        </mxCell>
        <mxCell id="inkB7Cj6uyTquk0GmjOG-10" value="&lt;span style=&quot;font-weight: 400;&quot;&gt;«interface»&lt;/span&gt;&lt;br style=&quot;font-weight: 400;&quot;&gt;&lt;div style=&quot;font-weight: 400;&quot;&gt;Subscription&lt;/div&gt;" style="swimlane;fontStyle=1;align=center;verticalAlign=top;childLayout=stackLayout;horizontal=1;startSize=36;horizontalStack=0;resizeParent=1;resizeParentMax=0;resizeLast=0;collapsible=1;marginBottom=0;whiteSpace=wrap;html=1;" parent="1" vertex="1">
          <mxGeometry x="759.5" y="90" width="160" height="174" as="geometry">
            <mxRectangle x="254" y="70" width="110" height="40" as="alternateBounds" />
          </mxGeometry>
        </mxCell>
        <mxCell id="inkB7Cj6uyTquk0GmjOG-11" value="+ montlyFee: number" style="text;strokeColor=none;fillColor=none;align=left;verticalAlign=top;spacingLeft=4;spacingRight=4;overflow=hidden;rotatable=0;points=[[0,0.5],[1,0.5]];portConstraint=eastwest;whiteSpace=wrap;html=1;" parent="inkB7Cj6uyTquk0GmjOG-10" vertex="1">
          <mxGeometry y="36" width="160" height="26" as="geometry" />
        </mxCell>
        <mxCell id="inkB7Cj6uyTquk0GmjOG-6" value="+ minPeriod: number&amp;nbsp;" style="text;strokeColor=none;fillColor=none;align=left;verticalAlign=top;spacingLeft=4;spacingRight=4;overflow=hidden;rotatable=0;points=[[0,0.5],[1,0.5]];portConstraint=eastwest;whiteSpace=wrap;html=1;" parent="inkB7Cj6uyTquk0GmjOG-10" vertex="1">
          <mxGeometry y="62" width="160" height="26" as="geometry" />
        </mxCell>
        <mxCell id="inkB7Cj6uyTquk0GmjOG-3" value="+ chanels: string[]" style="text;strokeColor=none;fillColor=none;align=left;verticalAlign=top;spacingLeft=4;spacingRight=4;overflow=hidden;rotatable=0;points=[[0,0.5],[1,0.5]];portConstraint=eastwest;whiteSpace=wrap;html=1;" parent="inkB7Cj6uyTquk0GmjOG-10" vertex="1">
          <mxGeometry y="88" width="160" height="26" as="geometry" />
        </mxCell>
        <mxCell id="inkB7Cj6uyTquk0GmjOG-8" value="+ features: string[]" style="text;strokeColor=none;fillColor=none;align=left;verticalAlign=top;spacingLeft=4;spacingRight=4;overflow=hidden;rotatable=0;points=[[0,0.5],[1,0.5]];portConstraint=eastwest;whiteSpace=wrap;html=1;" parent="inkB7Cj6uyTquk0GmjOG-10" vertex="1">
          <mxGeometry y="114" width="160" height="26" as="geometry" />
        </mxCell>
        <mxCell id="inkB7Cj6uyTquk0GmjOG-12" value="" style="line;strokeWidth=1;fillColor=none;align=left;verticalAlign=middle;spacingTop=-1;spacingLeft=3;spacingRight=3;rotatable=0;labelPosition=right;points=[];portConstraint=eastwest;strokeColor=inherit;" parent="inkB7Cj6uyTquk0GmjOG-10" vertex="1">
          <mxGeometry y="140" width="160" height="8" as="geometry" />
        </mxCell>
        <mxCell id="inkB7Cj6uyTquk0GmjOG-13" value="+ getDescription(): string" style="text;strokeColor=none;fillColor=none;align=left;verticalAlign=top;spacingLeft=4;spacingRight=4;overflow=hidden;rotatable=0;points=[[0,0.5],[1,0.5]];portConstraint=eastwest;whiteSpace=wrap;html=1;" parent="inkB7Cj6uyTquk0GmjOG-10" vertex="1">
          <mxGeometry y="148" width="160" height="26" as="geometry" />
        </mxCell>
        <mxCell id="inkB7Cj6uyTquk0GmjOG-23" style="edgeStyle=orthogonalEdgeStyle;rounded=0;orthogonalLoop=1;jettySize=auto;html=1;exitX=0.75;exitY=1;exitDx=0;exitDy=0;entryX=0.5;entryY=0;entryDx=0;entryDy=0;" parent="1" source="inkB7Cj6uyTquk0GmjOG-10" target="WPzoRWSfovS5k_taFGuc-10" edge="1">
          <mxGeometry relative="1" as="geometry">
            <mxPoint x="998.02" y="336" as="targetPoint" />
          </mxGeometry>
        </mxCell>
        <mxCell id="WPzoRWSfovS5k_taFGuc-10" value="PremiumSubscription" style="swimlane;fontStyle=1;align=center;verticalAlign=top;childLayout=stackLayout;horizontal=1;startSize=26;horizontalStack=0;resizeParent=1;resizeParentMax=0;resizeLast=0;collapsible=1;marginBottom=0;whiteSpace=wrap;html=1;" vertex="1" parent="1">
          <mxGeometry x="910" y="392" width="160" height="52" as="geometry" />
        </mxCell>
        <mxCell id="WPzoRWSfovS5k_taFGuc-51" value="+ getDescription(): string" style="text;strokeColor=none;fillColor=none;align=left;verticalAlign=top;spacingLeft=4;spacingRight=4;overflow=hidden;rotatable=0;points=[[0,0.5],[1,0.5]];portConstraint=eastwest;whiteSpace=wrap;html=1;" vertex="1" parent="WPzoRWSfovS5k_taFGuc-10">
          <mxGeometry y="26" width="160" height="26" as="geometry" />
        </mxCell>
        <mxCell id="WPzoRWSfovS5k_taFGuc-34" style="edgeStyle=orthogonalEdgeStyle;rounded=0;orthogonalLoop=1;jettySize=auto;html=1;exitX=0.25;exitY=1;exitDx=0;exitDy=0;entryX=0.5;entryY=0;entryDx=0;entryDy=0;" edge="1" parent="1" source="WPzoRWSfovS5k_taFGuc-22" target="WPzoRWSfovS5k_taFGuc-28">
          <mxGeometry relative="1" as="geometry" />
        </mxCell>
        <mxCell id="WPzoRWSfovS5k_taFGuc-35" style="edgeStyle=orthogonalEdgeStyle;rounded=0;orthogonalLoop=1;jettySize=auto;html=1;exitX=0.5;exitY=1;exitDx=0;exitDy=0;entryX=0.5;entryY=0;entryDx=0;entryDy=0;" edge="1" parent="1" source="WPzoRWSfovS5k_taFGuc-22" target="WPzoRWSfovS5k_taFGuc-27">
          <mxGeometry relative="1" as="geometry" />
        </mxCell>
        <mxCell id="WPzoRWSfovS5k_taFGuc-36" style="edgeStyle=orthogonalEdgeStyle;rounded=0;orthogonalLoop=1;jettySize=auto;html=1;exitX=0.75;exitY=1;exitDx=0;exitDy=0;entryX=0.5;entryY=0;entryDx=0;entryDy=0;" edge="1" parent="1" source="WPzoRWSfovS5k_taFGuc-22" target="WPzoRWSfovS5k_taFGuc-26">
          <mxGeometry relative="1" as="geometry" />
        </mxCell>
        <mxCell id="WPzoRWSfovS5k_taFGuc-22" value="SubscriptionFactory" style="swimlane;fontStyle=1;align=center;verticalAlign=top;childLayout=stackLayout;horizontal=1;startSize=26;horizontalStack=0;resizeParent=1;resizeParentMax=0;resizeLast=0;collapsible=1;marginBottom=0;whiteSpace=wrap;html=1;" vertex="1" parent="1">
          <mxGeometry x="300" y="220" width="160" height="52" as="geometry">
            <mxRectangle x="360" y="440" width="150" height="30" as="alternateBounds" />
          </mxGeometry>
        </mxCell>
        <mxCell id="WPzoRWSfovS5k_taFGuc-20" value="+ getDescription(): string" style="text;strokeColor=none;fillColor=none;align=left;verticalAlign=top;spacingLeft=4;spacingRight=4;overflow=hidden;rotatable=0;points=[[0,0.5],[1,0.5]];portConstraint=eastwest;whiteSpace=wrap;html=1;" vertex="1" parent="WPzoRWSfovS5k_taFGuc-22">
          <mxGeometry y="26" width="160" height="26" as="geometry" />
        </mxCell>
        <mxCell id="WPzoRWSfovS5k_taFGuc-24" value="EducationalSubscription" style="swimlane;fontStyle=1;align=center;verticalAlign=top;childLayout=stackLayout;horizontal=1;startSize=26;horizontalStack=0;resizeParent=1;resizeParentMax=0;resizeLast=0;collapsible=1;marginBottom=0;whiteSpace=wrap;html=1;" vertex="1" parent="1">
          <mxGeometry x="759.5" y="470" width="160" height="52" as="geometry" />
        </mxCell>
        <mxCell id="WPzoRWSfovS5k_taFGuc-52" value="+ getDescription(): string" style="text;strokeColor=none;fillColor=none;align=left;verticalAlign=top;spacingLeft=4;spacingRight=4;overflow=hidden;rotatable=0;points=[[0,0.5],[1,0.5]];portConstraint=eastwest;whiteSpace=wrap;html=1;" vertex="1" parent="WPzoRWSfovS5k_taFGuc-24">
          <mxGeometry y="26" width="160" height="26" as="geometry" />
        </mxCell>
        <mxCell id="WPzoRWSfovS5k_taFGuc-25" value="DomesticSubscription" style="swimlane;fontStyle=1;align=center;verticalAlign=top;childLayout=stackLayout;horizontal=1;startSize=26;horizontalStack=0;resizeParent=1;resizeParentMax=0;resizeLast=0;collapsible=1;marginBottom=0;whiteSpace=wrap;html=1;" vertex="1" parent="1">
          <mxGeometry x="620" y="392" width="160" height="52" as="geometry" />
        </mxCell>
        <mxCell id="WPzoRWSfovS5k_taFGuc-53" value="+ getDescription(): string" style="text;strokeColor=none;fillColor=none;align=left;verticalAlign=top;spacingLeft=4;spacingRight=4;overflow=hidden;rotatable=0;points=[[0,0.5],[1,0.5]];portConstraint=eastwest;whiteSpace=wrap;html=1;" vertex="1" parent="WPzoRWSfovS5k_taFGuc-25">
          <mxGeometry y="26" width="160" height="26" as="geometry" />
        </mxCell>
        <mxCell id="WPzoRWSfovS5k_taFGuc-26" value="PremiumSubscriptionFactory" style="swimlane;fontStyle=1;align=center;verticalAlign=top;childLayout=stackLayout;horizontal=1;startSize=26;horizontalStack=0;resizeParent=1;resizeParentMax=0;resizeLast=0;collapsible=1;marginBottom=0;whiteSpace=wrap;html=1;" vertex="1" parent="1">
          <mxGeometry x="440" y="320" width="170" height="52" as="geometry" />
        </mxCell>
        <mxCell id="WPzoRWSfovS5k_taFGuc-29" value="+ getDescription(): string" style="text;strokeColor=none;fillColor=none;align=left;verticalAlign=top;spacingLeft=4;spacingRight=4;overflow=hidden;rotatable=0;points=[[0,0.5],[1,0.5]];portConstraint=eastwest;whiteSpace=wrap;html=1;" vertex="1" parent="WPzoRWSfovS5k_taFGuc-26">
          <mxGeometry y="26" width="170" height="26" as="geometry" />
        </mxCell>
        <mxCell id="WPzoRWSfovS5k_taFGuc-28" value="DomesticSubscriptionFactory" style="swimlane;fontStyle=1;align=center;verticalAlign=top;childLayout=stackLayout;horizontal=1;startSize=26;horizontalStack=0;resizeParent=1;resizeParentMax=0;resizeLast=0;collapsible=1;marginBottom=0;whiteSpace=wrap;html=1;" vertex="1" parent="1">
          <mxGeometry x="130" y="320" width="180" height="52" as="geometry" />
        </mxCell>
        <mxCell id="WPzoRWSfovS5k_taFGuc-31" value="+ getDescription(): string" style="text;strokeColor=none;fillColor=none;align=left;verticalAlign=top;spacingLeft=4;spacingRight=4;overflow=hidden;rotatable=0;points=[[0,0.5],[1,0.5]];portConstraint=eastwest;whiteSpace=wrap;html=1;" vertex="1" parent="WPzoRWSfovS5k_taFGuc-28">
          <mxGeometry y="26" width="180" height="26" as="geometry" />
        </mxCell>
        <mxCell id="WPzoRWSfovS5k_taFGuc-27" value="EducationalSubscriptionFactory" style="swimlane;fontStyle=1;align=center;verticalAlign=top;childLayout=stackLayout;horizontal=1;startSize=26;horizontalStack=0;resizeParent=1;resizeParentMax=0;resizeLast=0;collapsible=1;marginBottom=0;whiteSpace=wrap;html=1;" vertex="1" parent="1">
          <mxGeometry x="280" y="392" width="200" height="52" as="geometry" />
        </mxCell>
        <mxCell id="WPzoRWSfovS5k_taFGuc-30" value="+ getDescription(): string" style="text;strokeColor=none;fillColor=none;align=left;verticalAlign=top;spacingLeft=4;spacingRight=4;overflow=hidden;rotatable=0;points=[[0,0.5],[1,0.5]];portConstraint=eastwest;whiteSpace=wrap;html=1;" vertex="1" parent="WPzoRWSfovS5k_taFGuc-27">
          <mxGeometry y="26" width="200" height="26" as="geometry" />
        </mxCell>
        <mxCell id="WPzoRWSfovS5k_taFGuc-54" style="edgeStyle=orthogonalEdgeStyle;rounded=0;orthogonalLoop=1;jettySize=auto;html=1;entryX=0.513;entryY=0.962;entryDx=0;entryDy=0;entryPerimeter=0;" edge="1" parent="1" source="WPzoRWSfovS5k_taFGuc-27" target="WPzoRWSfovS5k_taFGuc-53">
          <mxGeometry relative="1" as="geometry">
            <Array as="points">
              <mxPoint x="380" y="600" />
              <mxPoint x="702" y="600" />
            </Array>
          </mxGeometry>
        </mxCell>
        <mxCell id="WPzoRWSfovS5k_taFGuc-55" style="edgeStyle=orthogonalEdgeStyle;rounded=0;orthogonalLoop=1;jettySize=auto;html=1;entryX=0.528;entryY=1;entryDx=0;entryDy=0;entryPerimeter=0;" edge="1" parent="1" source="WPzoRWSfovS5k_taFGuc-27" target="WPzoRWSfovS5k_taFGuc-52">
          <mxGeometry relative="1" as="geometry">
            <Array as="points">
              <mxPoint x="380" y="600" />
              <mxPoint x="844" y="600" />
            </Array>
          </mxGeometry>
        </mxCell>
        <mxCell id="WPzoRWSfovS5k_taFGuc-56" style="edgeStyle=orthogonalEdgeStyle;rounded=0;orthogonalLoop=1;jettySize=auto;html=1;entryX=0.619;entryY=1.077;entryDx=0;entryDy=0;entryPerimeter=0;" edge="1" parent="1" source="WPzoRWSfovS5k_taFGuc-27" target="WPzoRWSfovS5k_taFGuc-51">
          <mxGeometry relative="1" as="geometry">
            <Array as="points">
              <mxPoint x="380" y="600" />
              <mxPoint x="1009" y="600" />
            </Array>
          </mxGeometry>
        </mxCell>
        <mxCell id="WPzoRWSfovS5k_taFGuc-58" value="" style="endArrow=none;html=1;rounded=0;exitX=0.471;exitY=1.192;exitDx=0;exitDy=0;exitPerimeter=0;" edge="1" parent="1" source="WPzoRWSfovS5k_taFGuc-29">
          <mxGeometry relative="1" as="geometry">
            <mxPoint x="470" y="522" as="sourcePoint" />
            <mxPoint x="520" y="600" as="targetPoint" />
          </mxGeometry>
        </mxCell>
        <mxCell id="WPzoRWSfovS5k_taFGuc-60" value="" style="shape=partialRectangle;whiteSpace=wrap;html=1;top=0;left=0;fillColor=none;direction=south;" vertex="1" parent="1">
          <mxGeometry x="220" y="370" width="160" height="230" as="geometry" />
        </mxCell>
        <mxCell id="WPzoRWSfovS5k_taFGuc-61" value="Concreate Factory 2" style="text;strokeColor=none;fillColor=none;align=left;verticalAlign=top;spacingLeft=4;spacingRight=4;overflow=hidden;rotatable=0;points=[[0,0.5],[1,0.5]];portConstraint=eastwest;whiteSpace=wrap;html=1;" vertex="1" parent="1">
          <mxGeometry x="250" y="450" width="130" height="26" as="geometry" />
        </mxCell>
        <mxCell id="WPzoRWSfovS5k_taFGuc-62" value="Concreate Factory 1" style="text;strokeColor=none;fillColor=none;align=left;verticalAlign=top;spacingLeft=4;spacingRight=4;overflow=hidden;rotatable=0;points=[[0,0.5],[1,0.5]];portConstraint=eastwest;whiteSpace=wrap;html=1;" vertex="1" parent="1">
          <mxGeometry x="60" y="380" width="130" height="26" as="geometry" />
        </mxCell>
        <mxCell id="WPzoRWSfovS5k_taFGuc-63" value="Concreate Factory 3" style="text;strokeColor=none;fillColor=none;align=left;verticalAlign=top;spacingLeft=4;spacingRight=4;overflow=hidden;rotatable=0;points=[[0,0.5],[1,0.5]];portConstraint=eastwest;whiteSpace=wrap;html=1;" vertex="1" parent="1">
          <mxGeometry x="540" y="290" width="130" height="26" as="geometry" />
        </mxCell>
        <mxCell id="WPzoRWSfovS5k_taFGuc-64" value="Concreate Product 1" style="text;strokeColor=none;fillColor=none;align=left;verticalAlign=top;spacingLeft=4;spacingRight=4;overflow=hidden;rotatable=0;points=[[0,0.5],[1,0.5]];portConstraint=eastwest;whiteSpace=wrap;html=1;" vertex="1" parent="1">
          <mxGeometry x="560" y="450" width="130" height="26" as="geometry" />
        </mxCell>
        <mxCell id="WPzoRWSfovS5k_taFGuc-69" value="Concreate Product 2" style="text;strokeColor=none;fillColor=none;align=left;verticalAlign=top;spacingLeft=4;spacingRight=4;overflow=hidden;rotatable=0;points=[[0,0.5],[1,0.5]];portConstraint=eastwest;whiteSpace=wrap;html=1;" vertex="1" parent="1">
          <mxGeometry x="850" y="530" width="130" height="26" as="geometry" />
        </mxCell>
        <mxCell id="WPzoRWSfovS5k_taFGuc-70" value="Concreate Product 3" style="text;strokeColor=none;fillColor=none;align=left;verticalAlign=top;spacingLeft=4;spacingRight=4;overflow=hidden;rotatable=0;points=[[0,0.5],[1,0.5]];portConstraint=eastwest;whiteSpace=wrap;html=1;" vertex="1" parent="1">
          <mxGeometry x="1000" y="366" width="130" height="26" as="geometry" />
        </mxCell>
        <mxCell id="WPzoRWSfovS5k_taFGuc-71" value="Abstract Product" style="text;strokeColor=none;fillColor=none;align=left;verticalAlign=top;spacingLeft=4;spacingRight=4;overflow=hidden;rotatable=0;points=[[0,0.5],[1,0.5]];portConstraint=eastwest;whiteSpace=wrap;html=1;" vertex="1" parent="1">
          <mxGeometry x="780" y="64" width="130" height="26" as="geometry" />
        </mxCell>
      </root>
    </mxGraphModel>
  </diagram>
  <diagram id="e_IWZBs6WdQAelYbi2tw" name="Абстрактна фабрика">
    <mxGraphModel dx="754" dy="538" grid="0" gridSize="10" guides="0" tooltips="1" connect="1" arrows="1" fold="1" page="0" pageScale="1" pageWidth="827" pageHeight="1169" math="0" shadow="0">
      <root>
        <mxCell id="0" />
        <mxCell id="1" parent="0" />
        <mxCell id="_53CssSbWrcWF75emLDU-2" value="Abstract DeviceFactory" style="swimlane;fontStyle=1;align=center;verticalAlign=top;childLayout=stackLayout;horizontal=1;startSize=26;horizontalStack=0;resizeParent=1;resizeParentMax=0;resizeLast=0;collapsible=1;marginBottom=0;whiteSpace=wrap;html=1;" vertex="1" parent="1">
          <mxGeometry x="1080" y="438" width="250" height="130" as="geometry" />
        </mxCell>
        <mxCell id="_53CssSbWrcWF75emLDU-6" value="+ abtract createLaptop(): Device" style="text;strokeColor=none;fillColor=none;align=left;verticalAlign=top;spacingLeft=4;spacingRight=4;overflow=hidden;rotatable=0;points=[[0,0.5],[1,0.5]];portConstraint=eastwest;whiteSpace=wrap;html=1;" vertex="1" parent="_53CssSbWrcWF75emLDU-2">
          <mxGeometry y="26" width="250" height="26" as="geometry" />
        </mxCell>
        <mxCell id="_53CssSbWrcWF75emLDU-7" value="+ abtract createNetbook():&amp;nbsp;Device" style="text;strokeColor=none;fillColor=none;align=left;verticalAlign=top;spacingLeft=4;spacingRight=4;overflow=hidden;rotatable=0;points=[[0,0.5],[1,0.5]];portConstraint=eastwest;whiteSpace=wrap;html=1;" vertex="1" parent="_53CssSbWrcWF75emLDU-2">
          <mxGeometry y="52" width="250" height="26" as="geometry" />
        </mxCell>
        <mxCell id="_53CssSbWrcWF75emLDU-8" value="+ abtract createEBook(): Device" style="text;strokeColor=none;fillColor=none;align=left;verticalAlign=top;spacingLeft=4;spacingRight=4;overflow=hidden;rotatable=0;points=[[0,0.5],[1,0.5]];portConstraint=eastwest;whiteSpace=wrap;html=1;" vertex="1" parent="_53CssSbWrcWF75emLDU-2">
          <mxGeometry y="78" width="250" height="26" as="geometry" />
        </mxCell>
        <mxCell id="_53CssSbWrcWF75emLDU-9" value="+ abtract createSmartphone():&amp;nbsp;Device" style="text;strokeColor=none;fillColor=none;align=left;verticalAlign=top;spacingLeft=4;spacingRight=4;overflow=hidden;rotatable=0;points=[[0,0.5],[1,0.5]];portConstraint=eastwest;whiteSpace=wrap;html=1;" vertex="1" parent="_53CssSbWrcWF75emLDU-2">
          <mxGeometry y="104" width="250" height="26" as="geometry" />
        </mxCell>
        <mxCell id="_53CssSbWrcWF75emLDU-22" style="edgeStyle=orthogonalEdgeStyle;rounded=0;orthogonalLoop=1;jettySize=auto;html=1;" edge="1" parent="1" source="_53CssSbWrcWF75emLDU-10" target="_53CssSbWrcWF75emLDU-20">
          <mxGeometry relative="1" as="geometry" />
        </mxCell>
        <mxCell id="_53CssSbWrcWF75emLDU-26" style="edgeStyle=orthogonalEdgeStyle;rounded=0;orthogonalLoop=1;jettySize=auto;html=1;entryX=0.5;entryY=0;entryDx=0;entryDy=0;" edge="1" parent="1" source="_53CssSbWrcWF75emLDU-10" target="_53CssSbWrcWF75emLDU-16">
          <mxGeometry relative="1" as="geometry" />
        </mxCell>
        <mxCell id="_53CssSbWrcWF75emLDU-27" style="edgeStyle=orthogonalEdgeStyle;rounded=0;orthogonalLoop=1;jettySize=auto;html=1;exitX=0.75;exitY=1;exitDx=0;exitDy=0;entryX=0.5;entryY=0;entryDx=0;entryDy=0;" edge="1" parent="1" source="_53CssSbWrcWF75emLDU-10" target="_53CssSbWrcWF75emLDU-14">
          <mxGeometry relative="1" as="geometry" />
        </mxCell>
        <mxCell id="_53CssSbWrcWF75emLDU-28" style="edgeStyle=orthogonalEdgeStyle;rounded=0;orthogonalLoop=1;jettySize=auto;html=1;exitX=0.25;exitY=1;exitDx=0;exitDy=0;entryX=0.5;entryY=0;entryDx=0;entryDy=0;" edge="1" parent="1" source="_53CssSbWrcWF75emLDU-10" target="_53CssSbWrcWF75emLDU-18">
          <mxGeometry relative="1" as="geometry" />
        </mxCell>
        <mxCell id="_53CssSbWrcWF75emLDU-29" style="edgeStyle=orthogonalEdgeStyle;rounded=0;orthogonalLoop=1;jettySize=auto;html=1;entryX=0.5;entryY=0;entryDx=0;entryDy=0;" edge="1" parent="1" source="_53CssSbWrcWF75emLDU-10" target="_53CssSbWrcWF75emLDU-2">
          <mxGeometry relative="1" as="geometry">
            <Array as="points">
              <mxPoint x="735" y="380" />
              <mxPoint x="1205" y="380" />
            </Array>
          </mxGeometry>
        </mxCell>
        <mxCell id="_53CssSbWrcWF75emLDU-10" value="abstract Device" style="swimlane;fontStyle=1;align=center;verticalAlign=top;childLayout=stackLayout;horizontal=1;startSize=26;horizontalStack=0;resizeParent=1;resizeParentMax=0;resizeLast=0;collapsible=1;marginBottom=0;whiteSpace=wrap;html=1;" vertex="1" parent="1">
          <mxGeometry x="650" y="400" width="170" height="52" as="geometry">
            <mxRectangle x="280" y="430" width="120" height="30" as="alternateBounds" />
          </mxGeometry>
        </mxCell>
        <mxCell id="_53CssSbWrcWF75emLDU-13" value="+ abstract displeyInfo(): void" style="text;strokeColor=none;fillColor=none;align=left;verticalAlign=top;spacingLeft=4;spacingRight=4;overflow=hidden;rotatable=0;points=[[0,0.5],[1,0.5]];portConstraint=eastwest;whiteSpace=wrap;html=1;" vertex="1" parent="_53CssSbWrcWF75emLDU-10">
          <mxGeometry y="26" width="170" height="26" as="geometry" />
        </mxCell>
        <mxCell id="_53CssSbWrcWF75emLDU-55" style="edgeStyle=orthogonalEdgeStyle;rounded=0;orthogonalLoop=1;jettySize=auto;html=1;entryX=0.5;entryY=0;entryDx=0;entryDy=0;" edge="1" parent="1" source="_53CssSbWrcWF75emLDU-14" target="_53CssSbWrcWF75emLDU-39">
          <mxGeometry relative="1" as="geometry">
            <Array as="points">
              <mxPoint x="800" y="570" />
              <mxPoint x="760" y="570" />
            </Array>
          </mxGeometry>
        </mxCell>
        <mxCell id="_53CssSbWrcWF75emLDU-14" value="Smartphone" style="swimlane;fontStyle=1;align=center;verticalAlign=top;childLayout=stackLayout;horizontal=1;startSize=26;horizontalStack=0;resizeParent=1;resizeParentMax=0;resizeLast=0;collapsible=1;marginBottom=0;whiteSpace=wrap;html=1;" vertex="1" parent="1">
          <mxGeometry x="740" y="477" width="120" height="52" as="geometry" />
        </mxCell>
        <mxCell id="_53CssSbWrcWF75emLDU-15" value="+ displeyInfo(): void" style="text;strokeColor=none;fillColor=none;align=left;verticalAlign=top;spacingLeft=4;spacingRight=4;overflow=hidden;rotatable=0;points=[[0,0.5],[1,0.5]];portConstraint=eastwest;whiteSpace=wrap;html=1;" vertex="1" parent="_53CssSbWrcWF75emLDU-14">
          <mxGeometry y="26" width="120" height="26" as="geometry" />
        </mxCell>
        <mxCell id="_53CssSbWrcWF75emLDU-54" style="edgeStyle=orthogonalEdgeStyle;rounded=0;orthogonalLoop=1;jettySize=auto;html=1;entryX=0.5;entryY=0;entryDx=0;entryDy=0;" edge="1" parent="1" source="_53CssSbWrcWF75emLDU-16" target="_53CssSbWrcWF75emLDU-31">
          <mxGeometry relative="1" as="geometry">
            <Array as="points">
              <mxPoint x="929" y="570" />
              <mxPoint x="950" y="570" />
            </Array>
          </mxGeometry>
        </mxCell>
        <mxCell id="_53CssSbWrcWF75emLDU-16" value="EBook" style="swimlane;fontStyle=1;align=center;verticalAlign=top;childLayout=stackLayout;horizontal=1;startSize=26;horizontalStack=0;resizeParent=1;resizeParentMax=0;resizeLast=0;collapsible=1;marginBottom=0;whiteSpace=wrap;html=1;" vertex="1" parent="1">
          <mxGeometry x="869" y="477" width="120" height="52" as="geometry" />
        </mxCell>
        <mxCell id="_53CssSbWrcWF75emLDU-17" value="+ displeyInfo(): void" style="text;strokeColor=none;fillColor=none;align=left;verticalAlign=top;spacingLeft=4;spacingRight=4;overflow=hidden;rotatable=0;points=[[0,0.5],[1,0.5]];portConstraint=eastwest;whiteSpace=wrap;html=1;" vertex="1" parent="_53CssSbWrcWF75emLDU-16">
          <mxGeometry y="26" width="120" height="26" as="geometry" />
        </mxCell>
        <mxCell id="_53CssSbWrcWF75emLDU-56" style="edgeStyle=orthogonalEdgeStyle;rounded=0;orthogonalLoop=1;jettySize=auto;html=1;entryX=0.5;entryY=0;entryDx=0;entryDy=0;" edge="1" parent="1" source="_53CssSbWrcWF75emLDU-18" target="_53CssSbWrcWF75emLDU-44">
          <mxGeometry relative="1" as="geometry">
            <Array as="points">
              <mxPoint x="670" y="570" />
              <mxPoint x="570" y="570" />
            </Array>
          </mxGeometry>
        </mxCell>
        <mxCell id="_53CssSbWrcWF75emLDU-18" value="Netbook" style="swimlane;fontStyle=1;align=center;verticalAlign=top;childLayout=stackLayout;horizontal=1;startSize=26;horizontalStack=0;resizeParent=1;resizeParentMax=0;resizeLast=0;collapsible=1;marginBottom=0;whiteSpace=wrap;html=1;" vertex="1" parent="1">
          <mxGeometry x="610" y="477" width="120" height="52" as="geometry" />
        </mxCell>
        <mxCell id="_53CssSbWrcWF75emLDU-19" value="+ displeyInfo(): void" style="text;strokeColor=none;fillColor=none;align=left;verticalAlign=top;spacingLeft=4;spacingRight=4;overflow=hidden;rotatable=0;points=[[0,0.5],[1,0.5]];portConstraint=eastwest;whiteSpace=wrap;html=1;" vertex="1" parent="_53CssSbWrcWF75emLDU-18">
          <mxGeometry y="26" width="120" height="26" as="geometry" />
        </mxCell>
        <mxCell id="_53CssSbWrcWF75emLDU-49" style="edgeStyle=orthogonalEdgeStyle;rounded=0;orthogonalLoop=1;jettySize=auto;html=1;" edge="1" parent="1" source="_53CssSbWrcWF75emLDU-20" target="_53CssSbWrcWF75emLDU-44">
          <mxGeometry relative="1" as="geometry">
            <Array as="points">
              <mxPoint x="540" y="570" />
              <mxPoint x="570" y="570" />
            </Array>
          </mxGeometry>
        </mxCell>
        <mxCell id="_53CssSbWrcWF75emLDU-50" style="edgeStyle=orthogonalEdgeStyle;rounded=0;orthogonalLoop=1;jettySize=auto;html=1;" edge="1" parent="1" source="_53CssSbWrcWF75emLDU-20" target="_53CssSbWrcWF75emLDU-39">
          <mxGeometry relative="1" as="geometry">
            <Array as="points">
              <mxPoint x="540" y="570" />
              <mxPoint x="760" y="570" />
            </Array>
          </mxGeometry>
        </mxCell>
        <mxCell id="_53CssSbWrcWF75emLDU-51" style="edgeStyle=orthogonalEdgeStyle;rounded=0;orthogonalLoop=1;jettySize=auto;html=1;entryX=0.5;entryY=0;entryDx=0;entryDy=0;" edge="1" parent="1" source="_53CssSbWrcWF75emLDU-20" target="_53CssSbWrcWF75emLDU-31">
          <mxGeometry relative="1" as="geometry">
            <Array as="points">
              <mxPoint x="540" y="570" />
              <mxPoint x="950" y="570" />
            </Array>
          </mxGeometry>
        </mxCell>
        <mxCell id="_53CssSbWrcWF75emLDU-20" value="Laptop" style="swimlane;fontStyle=1;align=center;verticalAlign=top;childLayout=stackLayout;horizontal=1;startSize=26;horizontalStack=0;resizeParent=1;resizeParentMax=0;resizeLast=0;collapsible=1;marginBottom=0;whiteSpace=wrap;html=1;" vertex="1" parent="1">
          <mxGeometry x="480" y="477" width="120" height="52" as="geometry" />
        </mxCell>
        <mxCell id="_53CssSbWrcWF75emLDU-21" value="+ displeyInfo(): void" style="text;strokeColor=none;fillColor=none;align=left;verticalAlign=top;spacingLeft=4;spacingRight=4;overflow=hidden;rotatable=0;points=[[0,0.5],[1,0.5]];portConstraint=eastwest;whiteSpace=wrap;html=1;" vertex="1" parent="_53CssSbWrcWF75emLDU-20">
          <mxGeometry y="26" width="120" height="26" as="geometry" />
        </mxCell>
        <mxCell id="_53CssSbWrcWF75emLDU-31" value="IPhoneFactory" style="swimlane;fontStyle=1;align=center;verticalAlign=top;childLayout=stackLayout;horizontal=1;startSize=26;horizontalStack=0;resizeParent=1;resizeParentMax=0;resizeLast=0;collapsible=1;marginBottom=0;whiteSpace=wrap;html=1;" vertex="1" parent="1">
          <mxGeometry x="860" y="620" width="180" height="130" as="geometry" />
        </mxCell>
        <mxCell id="_53CssSbWrcWF75emLDU-36" value="+ createNetbook():&amp;nbsp;Device" style="text;strokeColor=none;fillColor=none;align=left;verticalAlign=top;spacingLeft=4;spacingRight=4;overflow=hidden;rotatable=0;points=[[0,0.5],[1,0.5]];portConstraint=eastwest;whiteSpace=wrap;html=1;" vertex="1" parent="_53CssSbWrcWF75emLDU-31">
          <mxGeometry y="26" width="180" height="26" as="geometry" />
        </mxCell>
        <mxCell id="_53CssSbWrcWF75emLDU-37" value="+ createEBook(): Device" style="text;strokeColor=none;fillColor=none;align=left;verticalAlign=top;spacingLeft=4;spacingRight=4;overflow=hidden;rotatable=0;points=[[0,0.5],[1,0.5]];portConstraint=eastwest;whiteSpace=wrap;html=1;" vertex="1" parent="_53CssSbWrcWF75emLDU-31">
          <mxGeometry y="52" width="180" height="26" as="geometry" />
        </mxCell>
        <mxCell id="_53CssSbWrcWF75emLDU-35" value="+ createLaptop(): Device" style="text;strokeColor=none;fillColor=none;align=left;verticalAlign=top;spacingLeft=4;spacingRight=4;overflow=hidden;rotatable=0;points=[[0,0.5],[1,0.5]];portConstraint=eastwest;whiteSpace=wrap;html=1;" vertex="1" parent="_53CssSbWrcWF75emLDU-31">
          <mxGeometry y="78" width="180" height="26" as="geometry" />
        </mxCell>
        <mxCell id="_53CssSbWrcWF75emLDU-38" value="+&amp;nbsp; createSmartphone():&amp;nbsp;Device" style="text;strokeColor=none;fillColor=none;align=left;verticalAlign=top;spacingLeft=4;spacingRight=4;overflow=hidden;rotatable=0;points=[[0,0.5],[1,0.5]];portConstraint=eastwest;whiteSpace=wrap;html=1;" vertex="1" parent="_53CssSbWrcWF75emLDU-31">
          <mxGeometry y="104" width="180" height="26" as="geometry" />
        </mxCell>
        <mxCell id="_53CssSbWrcWF75emLDU-39" value="GalaxyFactory" style="swimlane;fontStyle=1;align=center;verticalAlign=top;childLayout=stackLayout;horizontal=1;startSize=26;horizontalStack=0;resizeParent=1;resizeParentMax=0;resizeLast=0;collapsible=1;marginBottom=0;whiteSpace=wrap;html=1;" vertex="1" parent="1">
          <mxGeometry x="670" y="620" width="180" height="130" as="geometry" />
        </mxCell>
        <mxCell id="_53CssSbWrcWF75emLDU-40" value="+ createNetbook():&amp;nbsp;Device" style="text;strokeColor=none;fillColor=none;align=left;verticalAlign=top;spacingLeft=4;spacingRight=4;overflow=hidden;rotatable=0;points=[[0,0.5],[1,0.5]];portConstraint=eastwest;whiteSpace=wrap;html=1;" vertex="1" parent="_53CssSbWrcWF75emLDU-39">
          <mxGeometry y="26" width="180" height="26" as="geometry" />
        </mxCell>
        <mxCell id="_53CssSbWrcWF75emLDU-41" value="+ createEBook(): Device" style="text;strokeColor=none;fillColor=none;align=left;verticalAlign=top;spacingLeft=4;spacingRight=4;overflow=hidden;rotatable=0;points=[[0,0.5],[1,0.5]];portConstraint=eastwest;whiteSpace=wrap;html=1;" vertex="1" parent="_53CssSbWrcWF75emLDU-39">
          <mxGeometry y="52" width="180" height="26" as="geometry" />
        </mxCell>
        <mxCell id="_53CssSbWrcWF75emLDU-42" value="+ createLaptop(): Device" style="text;strokeColor=none;fillColor=none;align=left;verticalAlign=top;spacingLeft=4;spacingRight=4;overflow=hidden;rotatable=0;points=[[0,0.5],[1,0.5]];portConstraint=eastwest;whiteSpace=wrap;html=1;" vertex="1" parent="_53CssSbWrcWF75emLDU-39">
          <mxGeometry y="78" width="180" height="26" as="geometry" />
        </mxCell>
        <mxCell id="_53CssSbWrcWF75emLDU-43" value="+&amp;nbsp; createSmartphone():&amp;nbsp;Device" style="text;strokeColor=none;fillColor=none;align=left;verticalAlign=top;spacingLeft=4;spacingRight=4;overflow=hidden;rotatable=0;points=[[0,0.5],[1,0.5]];portConstraint=eastwest;whiteSpace=wrap;html=1;" vertex="1" parent="_53CssSbWrcWF75emLDU-39">
          <mxGeometry y="104" width="180" height="26" as="geometry" />
        </mxCell>
        <mxCell id="_53CssSbWrcWF75emLDU-44" value="XiaomiFactory" style="swimlane;fontStyle=1;align=center;verticalAlign=top;childLayout=stackLayout;horizontal=1;startSize=26;horizontalStack=0;resizeParent=1;resizeParentMax=0;resizeLast=0;collapsible=1;marginBottom=0;whiteSpace=wrap;html=1;" vertex="1" parent="1">
          <mxGeometry x="480" y="620" width="180" height="130" as="geometry" />
        </mxCell>
        <mxCell id="_53CssSbWrcWF75emLDU-45" value="+ createNetbook():&amp;nbsp;Device" style="text;strokeColor=none;fillColor=none;align=left;verticalAlign=top;spacingLeft=4;spacingRight=4;overflow=hidden;rotatable=0;points=[[0,0.5],[1,0.5]];portConstraint=eastwest;whiteSpace=wrap;html=1;" vertex="1" parent="_53CssSbWrcWF75emLDU-44">
          <mxGeometry y="26" width="180" height="26" as="geometry" />
        </mxCell>
        <mxCell id="_53CssSbWrcWF75emLDU-46" value="+ createEBook(): Device" style="text;strokeColor=none;fillColor=none;align=left;verticalAlign=top;spacingLeft=4;spacingRight=4;overflow=hidden;rotatable=0;points=[[0,0.5],[1,0.5]];portConstraint=eastwest;whiteSpace=wrap;html=1;" vertex="1" parent="_53CssSbWrcWF75emLDU-44">
          <mxGeometry y="52" width="180" height="26" as="geometry" />
        </mxCell>
        <mxCell id="_53CssSbWrcWF75emLDU-47" value="+ createLaptop(): Device" style="text;strokeColor=none;fillColor=none;align=left;verticalAlign=top;spacingLeft=4;spacingRight=4;overflow=hidden;rotatable=0;points=[[0,0.5],[1,0.5]];portConstraint=eastwest;whiteSpace=wrap;html=1;" vertex="1" parent="_53CssSbWrcWF75emLDU-44">
          <mxGeometry y="78" width="180" height="26" as="geometry" />
        </mxCell>
        <mxCell id="_53CssSbWrcWF75emLDU-48" value="+&amp;nbsp; createSmartphone():&amp;nbsp;Device" style="text;strokeColor=none;fillColor=none;align=left;verticalAlign=top;spacingLeft=4;spacingRight=4;overflow=hidden;rotatable=0;points=[[0,0.5],[1,0.5]];portConstraint=eastwest;whiteSpace=wrap;html=1;" vertex="1" parent="_53CssSbWrcWF75emLDU-44">
          <mxGeometry y="104" width="180" height="26" as="geometry" />
        </mxCell>
        <mxCell id="_53CssSbWrcWF75emLDU-57" style="edgeStyle=orthogonalEdgeStyle;rounded=0;orthogonalLoop=1;jettySize=auto;html=1;entryX=0.501;entryY=0.984;entryDx=0;entryDy=0;entryPerimeter=0;" edge="1" parent="1" source="_53CssSbWrcWF75emLDU-2" target="_53CssSbWrcWF75emLDU-38">
          <mxGeometry relative="1" as="geometry" />
        </mxCell>
        <mxCell id="_53CssSbWrcWF75emLDU-58" style="edgeStyle=orthogonalEdgeStyle;rounded=0;orthogonalLoop=1;jettySize=auto;html=1;entryX=0.495;entryY=1.037;entryDx=0;entryDy=0;entryPerimeter=0;" edge="1" parent="1" source="_53CssSbWrcWF75emLDU-2" target="_53CssSbWrcWF75emLDU-43">
          <mxGeometry relative="1" as="geometry" />
        </mxCell>
        <mxCell id="_53CssSbWrcWF75emLDU-59" style="edgeStyle=orthogonalEdgeStyle;rounded=0;orthogonalLoop=1;jettySize=auto;html=1;entryX=0.466;entryY=1.037;entryDx=0;entryDy=0;entryPerimeter=0;" edge="1" parent="1" source="_53CssSbWrcWF75emLDU-2" target="_53CssSbWrcWF75emLDU-48">
          <mxGeometry relative="1" as="geometry" />
        </mxCell>
      </root>
    </mxGraphModel>
  </diagram>
  <diagram id="iagLjghiAretk63nI2Xv" name="Будівельник">
    <mxGraphModel dx="1856" dy="1078" grid="1" gridSize="10" guides="1" tooltips="1" connect="1" arrows="1" fold="1" page="0" pageScale="1" pageWidth="827" pageHeight="1169" math="0" shadow="0">
      <root>
        <mxCell id="0" />
        <mxCell id="1" parent="0" />
        <mxCell id="4eq71-ilib0gUALiEE4j-53" style="edgeStyle=orthogonalEdgeStyle;rounded=0;orthogonalLoop=1;jettySize=auto;html=1;entryX=0.5;entryY=0;entryDx=0;entryDy=0;" edge="1" parent="1" source="4eq71-ilib0gUALiEE4j-6" target="4eq71-ilib0gUALiEE4j-29">
          <mxGeometry relative="1" as="geometry">
            <Array as="points">
              <mxPoint x="-110" y="104" />
              <mxPoint x="-110" y="-50" />
              <mxPoint x="50" y="-50" />
            </Array>
          </mxGeometry>
        </mxCell>
        <mxCell id="4eq71-ilib0gUALiEE4j-54" style="edgeStyle=orthogonalEdgeStyle;rounded=0;orthogonalLoop=1;jettySize=auto;html=1;entryX=0.5;entryY=0;entryDx=0;entryDy=0;" edge="1" parent="1" source="4eq71-ilib0gUALiEE4j-6" target="4eq71-ilib0gUALiEE4j-40">
          <mxGeometry relative="1" as="geometry">
            <Array as="points">
              <mxPoint x="-110" y="104" />
              <mxPoint x="-110" y="-50" />
              <mxPoint x="300" y="-50" />
            </Array>
          </mxGeometry>
        </mxCell>
        <mxCell id="4eq71-ilib0gUALiEE4j-6" value="&lt;span style=&quot;font-weight: 400;&quot;&gt;«interface» Builder&lt;/span&gt;" style="swimlane;fontStyle=1;align=center;verticalAlign=top;childLayout=stackLayout;horizontal=1;startSize=26;horizontalStack=0;resizeParent=1;resizeParentMax=0;resizeLast=0;collapsible=1;marginBottom=0;whiteSpace=wrap;html=1;" vertex="1" parent="1">
          <mxGeometry x="-360" width="220" height="208" as="geometry" />
        </mxCell>
        <mxCell id="4eq71-ilib0gUALiEE4j-12" value="&lt;span style=&quot;text-align: center;&quot;&gt;+ setHeight(height: number): this&lt;/span&gt;" style="text;strokeColor=none;fillColor=none;align=left;verticalAlign=top;spacingLeft=4;spacingRight=4;overflow=hidden;rotatable=0;points=[[0,0.5],[1,0.5]];portConstraint=eastwest;whiteSpace=wrap;html=1;" vertex="1" parent="4eq71-ilib0gUALiEE4j-6">
          <mxGeometry y="26" width="220" height="26" as="geometry" />
        </mxCell>
        <mxCell id="4eq71-ilib0gUALiEE4j-9" value="+ setBuild(build: string): this" style="text;strokeColor=none;fillColor=none;align=left;verticalAlign=top;spacingLeft=4;spacingRight=4;overflow=hidden;rotatable=0;points=[[0,0.5],[1,0.5]];portConstraint=eastwest;whiteSpace=wrap;html=1;" vertex="1" parent="4eq71-ilib0gUALiEE4j-6">
          <mxGeometry y="52" width="220" height="26" as="geometry" />
        </mxCell>
        <mxCell id="4eq71-ilib0gUALiEE4j-16" value="&lt;span style=&quot;text-align: center;&quot;&gt;+&amp;nbsp;&lt;/span&gt;&lt;span style=&quot;text-align: center;&quot;&gt;setHairColor(hairColor: string): this&lt;/span&gt;" style="text;strokeColor=none;fillColor=none;align=left;verticalAlign=top;spacingLeft=4;spacingRight=4;overflow=hidden;rotatable=0;points=[[0,0.5],[1,0.5]];portConstraint=eastwest;whiteSpace=wrap;html=1;" vertex="1" parent="4eq71-ilib0gUALiEE4j-6">
          <mxGeometry y="78" width="220" height="26" as="geometry" />
        </mxCell>
        <mxCell id="4eq71-ilib0gUALiEE4j-15" value="+&amp;nbsp;&lt;span style=&quot;text-align: center;&quot;&gt;setEyeColor(eyeColor: string): this&lt;/span&gt;" style="text;strokeColor=none;fillColor=none;align=left;verticalAlign=top;spacingLeft=4;spacingRight=4;overflow=hidden;rotatable=0;points=[[0,0.5],[1,0.5]];portConstraint=eastwest;whiteSpace=wrap;html=1;" vertex="1" parent="4eq71-ilib0gUALiEE4j-6">
          <mxGeometry y="104" width="220" height="26" as="geometry" />
        </mxCell>
        <mxCell id="4eq71-ilib0gUALiEE4j-13" value="+&amp;nbsp;&lt;span style=&quot;text-align: center;&quot;&gt;setClothing(clothing: string): this&lt;/span&gt;" style="text;strokeColor=none;fillColor=none;align=left;verticalAlign=top;spacingLeft=4;spacingRight=4;overflow=hidden;rotatable=0;points=[[0,0.5],[1,0.5]];portConstraint=eastwest;whiteSpace=wrap;html=1;" vertex="1" parent="4eq71-ilib0gUALiEE4j-6">
          <mxGeometry y="130" width="220" height="26" as="geometry" />
        </mxCell>
        <mxCell id="4eq71-ilib0gUALiEE4j-14" value="+&amp;nbsp;&lt;span style=&quot;text-align: center;&quot;&gt;setInventory(inventory: string[]): this&lt;/span&gt;" style="text;strokeColor=none;fillColor=none;align=left;verticalAlign=top;spacingLeft=4;spacingRight=4;overflow=hidden;rotatable=0;points=[[0,0.5],[1,0.5]];portConstraint=eastwest;whiteSpace=wrap;html=1;" vertex="1" parent="4eq71-ilib0gUALiEE4j-6">
          <mxGeometry y="156" width="220" height="26" as="geometry" />
        </mxCell>
        <mxCell id="4eq71-ilib0gUALiEE4j-11" value="&lt;span style=&quot;text-align: center;&quot;&gt;&amp;nbsp;+getResult(): Character&lt;/span&gt;" style="text;strokeColor=none;fillColor=none;align=left;verticalAlign=top;spacingLeft=4;spacingRight=4;overflow=hidden;rotatable=0;points=[[0,0.5],[1,0.5]];portConstraint=eastwest;whiteSpace=wrap;html=1;" vertex="1" parent="4eq71-ilib0gUALiEE4j-6">
          <mxGeometry y="182" width="220" height="26" as="geometry" />
        </mxCell>
        <mxCell id="4eq71-ilib0gUALiEE4j-17" value="Character" style="swimlane;fontStyle=1;align=center;verticalAlign=top;childLayout=stackLayout;horizontal=1;startSize=26;horizontalStack=0;resizeParent=1;resizeParentMax=0;resizeLast=0;collapsible=1;marginBottom=0;whiteSpace=wrap;html=1;" vertex="1" parent="1">
          <mxGeometry x="480" y="-17" width="130" height="242" as="geometry" />
        </mxCell>
        <mxCell id="4eq71-ilib0gUALiEE4j-21" value="&lt;span style=&quot;text-align: center;&quot;&gt;+ height: number&lt;/span&gt;" style="text;strokeColor=none;fillColor=none;align=left;verticalAlign=top;spacingLeft=4;spacingRight=4;overflow=hidden;rotatable=0;points=[[0,0.5],[1,0.5]];portConstraint=eastwest;whiteSpace=wrap;html=1;" vertex="1" parent="4eq71-ilib0gUALiEE4j-17">
          <mxGeometry y="26" width="130" height="26" as="geometry" />
        </mxCell>
        <mxCell id="4eq71-ilib0gUALiEE4j-22" value="+ build: string" style="text;strokeColor=none;fillColor=none;align=left;verticalAlign=top;spacingLeft=4;spacingRight=4;overflow=hidden;rotatable=0;points=[[0,0.5],[1,0.5]];portConstraint=eastwest;whiteSpace=wrap;html=1;" vertex="1" parent="4eq71-ilib0gUALiEE4j-17">
          <mxGeometry y="52" width="130" height="26" as="geometry" />
        </mxCell>
        <mxCell id="4eq71-ilib0gUALiEE4j-23" value="&lt;span style=&quot;text-align: center;&quot;&gt;+&amp;nbsp;&lt;/span&gt;&lt;span style=&quot;text-align: center;&quot;&gt;hairColor: string&lt;/span&gt;" style="text;strokeColor=none;fillColor=none;align=left;verticalAlign=top;spacingLeft=4;spacingRight=4;overflow=hidden;rotatable=0;points=[[0,0.5],[1,0.5]];portConstraint=eastwest;whiteSpace=wrap;html=1;" vertex="1" parent="4eq71-ilib0gUALiEE4j-17">
          <mxGeometry y="78" width="130" height="26" as="geometry" />
        </mxCell>
        <mxCell id="4eq71-ilib0gUALiEE4j-24" value="+&amp;nbsp;&lt;span style=&quot;text-align: center;&quot;&gt;eyeColor: string&lt;/span&gt;" style="text;strokeColor=none;fillColor=none;align=left;verticalAlign=top;spacingLeft=4;spacingRight=4;overflow=hidden;rotatable=0;points=[[0,0.5],[1,0.5]];portConstraint=eastwest;whiteSpace=wrap;html=1;" vertex="1" parent="4eq71-ilib0gUALiEE4j-17">
          <mxGeometry y="104" width="130" height="26" as="geometry" />
        </mxCell>
        <mxCell id="4eq71-ilib0gUALiEE4j-25" value="+&amp;nbsp;&lt;span style=&quot;text-align: center;&quot;&gt;clothing: string&lt;/span&gt;" style="text;strokeColor=none;fillColor=none;align=left;verticalAlign=top;spacingLeft=4;spacingRight=4;overflow=hidden;rotatable=0;points=[[0,0.5],[1,0.5]];portConstraint=eastwest;whiteSpace=wrap;html=1;" vertex="1" parent="4eq71-ilib0gUALiEE4j-17">
          <mxGeometry y="130" width="130" height="26" as="geometry" />
        </mxCell>
        <mxCell id="4eq71-ilib0gUALiEE4j-26" value="+&amp;nbsp;&lt;span style=&quot;text-align: center;&quot;&gt;inventory: string[]&lt;/span&gt;" style="text;strokeColor=none;fillColor=none;align=left;verticalAlign=top;spacingLeft=4;spacingRight=4;overflow=hidden;rotatable=0;points=[[0,0.5],[1,0.5]];portConstraint=eastwest;whiteSpace=wrap;html=1;" vertex="1" parent="4eq71-ilib0gUALiEE4j-17">
          <mxGeometry y="156" width="130" height="26" as="geometry" />
        </mxCell>
        <mxCell id="4eq71-ilib0gUALiEE4j-28" value="&lt;span style=&quot;text-align: center;&quot;&gt;&amp;nbsp;+deeds: string[]&lt;/span&gt;" style="text;strokeColor=none;fillColor=none;align=left;verticalAlign=top;spacingLeft=4;spacingRight=4;overflow=hidden;rotatable=0;points=[[0,0.5],[1,0.5]];portConstraint=eastwest;whiteSpace=wrap;html=1;" vertex="1" parent="4eq71-ilib0gUALiEE4j-17">
          <mxGeometry y="182" width="130" height="26" as="geometry" />
        </mxCell>
        <mxCell id="4eq71-ilib0gUALiEE4j-19" value="" style="line;strokeWidth=1;fillColor=none;align=left;verticalAlign=middle;spacingTop=-1;spacingLeft=3;spacingRight=3;rotatable=0;labelPosition=right;points=[];portConstraint=eastwest;strokeColor=inherit;" vertex="1" parent="4eq71-ilib0gUALiEE4j-17">
          <mxGeometry y="208" width="130" height="8" as="geometry" />
        </mxCell>
        <mxCell id="4eq71-ilib0gUALiEE4j-20" value="+ describe(): void" style="text;strokeColor=none;fillColor=none;align=left;verticalAlign=top;spacingLeft=4;spacingRight=4;overflow=hidden;rotatable=0;points=[[0,0.5],[1,0.5]];portConstraint=eastwest;whiteSpace=wrap;html=1;" vertex="1" parent="4eq71-ilib0gUALiEE4j-17">
          <mxGeometry y="216" width="130" height="26" as="geometry" />
        </mxCell>
        <mxCell id="4eq71-ilib0gUALiEE4j-29" value="HeroBilder" style="swimlane;fontStyle=1;align=center;verticalAlign=top;childLayout=stackLayout;horizontal=1;startSize=26;horizontalStack=0;resizeParent=1;resizeParentMax=0;resizeLast=0;collapsible=1;marginBottom=0;whiteSpace=wrap;html=1;" vertex="1" parent="1">
          <mxGeometry x="-60" y="-30" width="220" height="268" as="geometry" />
        </mxCell>
        <mxCell id="4eq71-ilib0gUALiEE4j-30" value="- hero: Character" style="text;strokeColor=none;fillColor=none;align=left;verticalAlign=top;spacingLeft=4;spacingRight=4;overflow=hidden;rotatable=0;points=[[0,0.5],[1,0.5]];portConstraint=eastwest;whiteSpace=wrap;html=1;" vertex="1" parent="4eq71-ilib0gUALiEE4j-29">
          <mxGeometry y="26" width="220" height="26" as="geometry" />
        </mxCell>
        <mxCell id="4eq71-ilib0gUALiEE4j-31" value="" style="line;strokeWidth=1;fillColor=none;align=left;verticalAlign=middle;spacingTop=-1;spacingLeft=3;spacingRight=3;rotatable=0;labelPosition=right;points=[];portConstraint=eastwest;strokeColor=inherit;" vertex="1" parent="4eq71-ilib0gUALiEE4j-29">
          <mxGeometry y="52" width="220" height="8" as="geometry" />
        </mxCell>
        <mxCell id="4eq71-ilib0gUALiEE4j-33" value="&lt;span style=&quot;text-align: center;&quot;&gt;+ setHeight(height: number): this&lt;/span&gt;" style="text;strokeColor=none;fillColor=none;align=left;verticalAlign=top;spacingLeft=4;spacingRight=4;overflow=hidden;rotatable=0;points=[[0,0.5],[1,0.5]];portConstraint=eastwest;whiteSpace=wrap;html=1;" vertex="1" parent="4eq71-ilib0gUALiEE4j-29">
          <mxGeometry y="60" width="220" height="26" as="geometry" />
        </mxCell>
        <mxCell id="4eq71-ilib0gUALiEE4j-34" value="+ setBuild(build: string): this" style="text;strokeColor=none;fillColor=none;align=left;verticalAlign=top;spacingLeft=4;spacingRight=4;overflow=hidden;rotatable=0;points=[[0,0.5],[1,0.5]];portConstraint=eastwest;whiteSpace=wrap;html=1;" vertex="1" parent="4eq71-ilib0gUALiEE4j-29">
          <mxGeometry y="86" width="220" height="26" as="geometry" />
        </mxCell>
        <mxCell id="4eq71-ilib0gUALiEE4j-35" value="&lt;span style=&quot;text-align: center;&quot;&gt;+&amp;nbsp;&lt;/span&gt;&lt;span style=&quot;text-align: center;&quot;&gt;setHairColor(hairColor: string): this&lt;/span&gt;" style="text;strokeColor=none;fillColor=none;align=left;verticalAlign=top;spacingLeft=4;spacingRight=4;overflow=hidden;rotatable=0;points=[[0,0.5],[1,0.5]];portConstraint=eastwest;whiteSpace=wrap;html=1;" vertex="1" parent="4eq71-ilib0gUALiEE4j-29">
          <mxGeometry y="112" width="220" height="26" as="geometry" />
        </mxCell>
        <mxCell id="4eq71-ilib0gUALiEE4j-36" value="+&amp;nbsp;&lt;span style=&quot;text-align: center;&quot;&gt;setEyeColor(eyeColor: string): this&lt;/span&gt;" style="text;strokeColor=none;fillColor=none;align=left;verticalAlign=top;spacingLeft=4;spacingRight=4;overflow=hidden;rotatable=0;points=[[0,0.5],[1,0.5]];portConstraint=eastwest;whiteSpace=wrap;html=1;" vertex="1" parent="4eq71-ilib0gUALiEE4j-29">
          <mxGeometry y="138" width="220" height="26" as="geometry" />
        </mxCell>
        <mxCell id="4eq71-ilib0gUALiEE4j-37" value="+&amp;nbsp;&lt;span style=&quot;text-align: center;&quot;&gt;setClothing(clothing: string): this&lt;/span&gt;" style="text;strokeColor=none;fillColor=none;align=left;verticalAlign=top;spacingLeft=4;spacingRight=4;overflow=hidden;rotatable=0;points=[[0,0.5],[1,0.5]];portConstraint=eastwest;whiteSpace=wrap;html=1;" vertex="1" parent="4eq71-ilib0gUALiEE4j-29">
          <mxGeometry y="164" width="220" height="26" as="geometry" />
        </mxCell>
        <mxCell id="4eq71-ilib0gUALiEE4j-38" value="+&amp;nbsp;&lt;span style=&quot;text-align: center;&quot;&gt;setInventory(inventory: string[]): this&lt;/span&gt;" style="text;strokeColor=none;fillColor=none;align=left;verticalAlign=top;spacingLeft=4;spacingRight=4;overflow=hidden;rotatable=0;points=[[0,0.5],[1,0.5]];portConstraint=eastwest;whiteSpace=wrap;html=1;" vertex="1" parent="4eq71-ilib0gUALiEE4j-29">
          <mxGeometry y="190" width="220" height="26" as="geometry" />
        </mxCell>
        <mxCell id="4eq71-ilib0gUALiEE4j-32" value="+ addGoodDeed(deed: string): this" style="text;strokeColor=none;fillColor=none;align=left;verticalAlign=top;spacingLeft=4;spacingRight=4;overflow=hidden;rotatable=0;points=[[0,0.5],[1,0.5]];portConstraint=eastwest;whiteSpace=wrap;html=1;" vertex="1" parent="4eq71-ilib0gUALiEE4j-29">
          <mxGeometry y="216" width="220" height="26" as="geometry" />
        </mxCell>
        <mxCell id="4eq71-ilib0gUALiEE4j-39" value="&lt;span style=&quot;text-align: center;&quot;&gt;&amp;nbsp;+getResult(): Character&lt;/span&gt;" style="text;strokeColor=none;fillColor=none;align=left;verticalAlign=top;spacingLeft=4;spacingRight=4;overflow=hidden;rotatable=0;points=[[0,0.5],[1,0.5]];portConstraint=eastwest;whiteSpace=wrap;html=1;" vertex="1" parent="4eq71-ilib0gUALiEE4j-29">
          <mxGeometry y="242" width="220" height="26" as="geometry" />
        </mxCell>
        <mxCell id="4eq71-ilib0gUALiEE4j-40" value="EnemyBilder" style="swimlane;fontStyle=1;align=center;verticalAlign=top;childLayout=stackLayout;horizontal=1;startSize=26;horizontalStack=0;resizeParent=1;resizeParentMax=0;resizeLast=0;collapsible=1;marginBottom=0;whiteSpace=wrap;html=1;" vertex="1" parent="1">
          <mxGeometry x="190" y="-30" width="220" height="268" as="geometry" />
        </mxCell>
        <mxCell id="4eq71-ilib0gUALiEE4j-41" value="- enemy: Character" style="text;strokeColor=none;fillColor=none;align=left;verticalAlign=top;spacingLeft=4;spacingRight=4;overflow=hidden;rotatable=0;points=[[0,0.5],[1,0.5]];portConstraint=eastwest;whiteSpace=wrap;html=1;" vertex="1" parent="4eq71-ilib0gUALiEE4j-40">
          <mxGeometry y="26" width="220" height="26" as="geometry" />
        </mxCell>
        <mxCell id="4eq71-ilib0gUALiEE4j-42" value="" style="line;strokeWidth=1;fillColor=none;align=left;verticalAlign=middle;spacingTop=-1;spacingLeft=3;spacingRight=3;rotatable=0;labelPosition=right;points=[];portConstraint=eastwest;strokeColor=inherit;" vertex="1" parent="4eq71-ilib0gUALiEE4j-40">
          <mxGeometry y="52" width="220" height="8" as="geometry" />
        </mxCell>
        <mxCell id="4eq71-ilib0gUALiEE4j-43" value="&lt;span style=&quot;text-align: center;&quot;&gt;+ setHeight(height: number): this&lt;/span&gt;" style="text;strokeColor=none;fillColor=none;align=left;verticalAlign=top;spacingLeft=4;spacingRight=4;overflow=hidden;rotatable=0;points=[[0,0.5],[1,0.5]];portConstraint=eastwest;whiteSpace=wrap;html=1;" vertex="1" parent="4eq71-ilib0gUALiEE4j-40">
          <mxGeometry y="60" width="220" height="26" as="geometry" />
        </mxCell>
        <mxCell id="4eq71-ilib0gUALiEE4j-44" value="+ setBuild(build: string): this" style="text;strokeColor=none;fillColor=none;align=left;verticalAlign=top;spacingLeft=4;spacingRight=4;overflow=hidden;rotatable=0;points=[[0,0.5],[1,0.5]];portConstraint=eastwest;whiteSpace=wrap;html=1;" vertex="1" parent="4eq71-ilib0gUALiEE4j-40">
          <mxGeometry y="86" width="220" height="26" as="geometry" />
        </mxCell>
        <mxCell id="4eq71-ilib0gUALiEE4j-45" value="&lt;span style=&quot;text-align: center;&quot;&gt;+&amp;nbsp;&lt;/span&gt;&lt;span style=&quot;text-align: center;&quot;&gt;setHairColor(hairColor: string): this&lt;/span&gt;" style="text;strokeColor=none;fillColor=none;align=left;verticalAlign=top;spacingLeft=4;spacingRight=4;overflow=hidden;rotatable=0;points=[[0,0.5],[1,0.5]];portConstraint=eastwest;whiteSpace=wrap;html=1;" vertex="1" parent="4eq71-ilib0gUALiEE4j-40">
          <mxGeometry y="112" width="220" height="26" as="geometry" />
        </mxCell>
        <mxCell id="4eq71-ilib0gUALiEE4j-46" value="+&amp;nbsp;&lt;span style=&quot;text-align: center;&quot;&gt;setEyeColor(eyeColor: string): this&lt;/span&gt;" style="text;strokeColor=none;fillColor=none;align=left;verticalAlign=top;spacingLeft=4;spacingRight=4;overflow=hidden;rotatable=0;points=[[0,0.5],[1,0.5]];portConstraint=eastwest;whiteSpace=wrap;html=1;" vertex="1" parent="4eq71-ilib0gUALiEE4j-40">
          <mxGeometry y="138" width="220" height="26" as="geometry" />
        </mxCell>
        <mxCell id="4eq71-ilib0gUALiEE4j-47" value="+&amp;nbsp;&lt;span style=&quot;text-align: center;&quot;&gt;setClothing(clothing: string): this&lt;/span&gt;" style="text;strokeColor=none;fillColor=none;align=left;verticalAlign=top;spacingLeft=4;spacingRight=4;overflow=hidden;rotatable=0;points=[[0,0.5],[1,0.5]];portConstraint=eastwest;whiteSpace=wrap;html=1;" vertex="1" parent="4eq71-ilib0gUALiEE4j-40">
          <mxGeometry y="164" width="220" height="26" as="geometry" />
        </mxCell>
        <mxCell id="4eq71-ilib0gUALiEE4j-48" value="+&amp;nbsp;&lt;span style=&quot;text-align: center;&quot;&gt;setInventory(inventory: string[]): this&lt;/span&gt;" style="text;strokeColor=none;fillColor=none;align=left;verticalAlign=top;spacingLeft=4;spacingRight=4;overflow=hidden;rotatable=0;points=[[0,0.5],[1,0.5]];portConstraint=eastwest;whiteSpace=wrap;html=1;" vertex="1" parent="4eq71-ilib0gUALiEE4j-40">
          <mxGeometry y="190" width="220" height="26" as="geometry" />
        </mxCell>
        <mxCell id="4eq71-ilib0gUALiEE4j-49" value="+ addEvilDeed(deed: string): this" style="text;strokeColor=none;fillColor=none;align=left;verticalAlign=top;spacingLeft=4;spacingRight=4;overflow=hidden;rotatable=0;points=[[0,0.5],[1,0.5]];portConstraint=eastwest;whiteSpace=wrap;html=1;" vertex="1" parent="4eq71-ilib0gUALiEE4j-40">
          <mxGeometry y="216" width="220" height="26" as="geometry" />
        </mxCell>
        <mxCell id="4eq71-ilib0gUALiEE4j-50" value="&lt;span style=&quot;text-align: center;&quot;&gt;&amp;nbsp;+getResult(): Character&lt;/span&gt;" style="text;strokeColor=none;fillColor=none;align=left;verticalAlign=top;spacingLeft=4;spacingRight=4;overflow=hidden;rotatable=0;points=[[0,0.5],[1,0.5]];portConstraint=eastwest;whiteSpace=wrap;html=1;" vertex="1" parent="4eq71-ilib0gUALiEE4j-40">
          <mxGeometry y="242" width="220" height="26" as="geometry" />
        </mxCell>
        <mxCell id="4eq71-ilib0gUALiEE4j-55" style="edgeStyle=orthogonalEdgeStyle;rounded=0;orthogonalLoop=1;jettySize=auto;html=1;entryX=0.504;entryY=1.02;entryDx=0;entryDy=0;entryPerimeter=0;" edge="1" parent="1" source="4eq71-ilib0gUALiEE4j-17" target="4eq71-ilib0gUALiEE4j-39">
          <mxGeometry relative="1" as="geometry">
            <Array as="points">
              <mxPoint x="450" y="100" />
              <mxPoint x="450" y="270" />
              <mxPoint x="51" y="270" />
            </Array>
          </mxGeometry>
        </mxCell>
        <mxCell id="4eq71-ilib0gUALiEE4j-56" style="edgeStyle=orthogonalEdgeStyle;rounded=0;orthogonalLoop=1;jettySize=auto;html=1;entryX=0.5;entryY=1.077;entryDx=0;entryDy=0;entryPerimeter=0;" edge="1" parent="1" source="4eq71-ilib0gUALiEE4j-24" target="4eq71-ilib0gUALiEE4j-50">
          <mxGeometry relative="1" as="geometry">
            <Array as="points">
              <mxPoint x="450" y="100" />
              <mxPoint x="450" y="270" />
              <mxPoint x="300" y="270" />
            </Array>
          </mxGeometry>
        </mxCell>
      </root>
    </mxGraphModel>
  </diagram>
</mxfile>
